<?xml version="1.0" standalone="no"?>
<!DOCTYPE svg PUBLIC "-//W3C//DTD SVG 20010904//EN"
 "http://www.w3.org/TR/2001/REC-SVG-20010904/DTD/svg10.dtd">
<svg version="1.0" xmlns="http://www.w3.org/2000/svg"
 width="260.000000pt" height="260.000000pt" viewBox="0 0 260.000000 260.000000"
 preserveAspectRatio="xMidYMid meet">
<metadata>
Created by potrace 1.11, written by Peter Selinger 2001-2013
</metadata>
<g transform="translate(0.000000,260.000000) scale(0.100000,-0.100000)"
fill="#000000" stroke="none">
<path d="M1033 1964 c-3 -8 -3 -28 1 -44 l6 -30 -50 0 c-28 0 -91 -7 -140 -16
-106 -18 -165 -16 -165 6 0 17 -63 62 -79 57 -6 -2 -10 -15 -8 -28 1 -13 3
-32 3 -41 0 -10 5 -18 12 -18 22 0 -28 -27 -113 -60 -97 -39 -219 -117 -255
-164 -54 -71 -65 -112 -65 -249 0 -244 59 -497 157 -675 63 -114 155 -220 275
-316 35 -28 56 -66 38 -66 -15 0 43 -56 85 -83 22 -14 74 -35 115 -48 66 -21
95 -24 235 -24 138 0 171 3 243 24 46 13 89 30 97 37 7 8 18 14 23 14 17 0 87
62 86 76 -1 7 37 45 85 83 47 37 95 78 105 90 11 11 27 21 36 21 10 0 37 17
61 39 57 50 81 61 219 104 140 44 211 88 300 184 130 141 170 237 170 405 0
97 -3 120 -24 163 -78 170 -283 233 -429 132 -16 -10 -29 -18 -31 -16 -1 2 -8
19 -15 36 -20 51 -127 143 -223 193 -55 29 -84 49 -81 58 3 7 0 33 -7 58 -13
47 -69 102 -90 89 -5 -3 -10 -1 -10 4 0 16 -40 13 -46 -3 -3 -8 3 -29 12 -48
10 -18 19 -43 21 -56 4 -21 1 -22 -39 -16 -24 3 -50 8 -58 10 -34 11 -245 44
-283 44 -30 0 -48 7 -63 23 -12 12 -40 32 -63 44 -36 19 -43 20 -48 7z m418
-198 c22 -10 23 -66 1 -66 -10 0 0 -11 23 -25 36 -22 37 -25 15 -24 -14 0 -72
8 -130 17 l-105 17 23 23 c12 12 22 33 22 45 0 13 2 26 4 28 7 6 127 -6 147
-15z m719 -255 c0 -5 -8 -11 -17 -14 -10 -3 -37 -17 -60 -32 -32 -19 -43 -22
-43 -12 0 14 29 31 91 56 13 5 25 10 27 10 1 1 2 -3 2 -8z m-171 -86 c-21 -73
-101 -146 -222 -204 -89 -42 -196 -85 -240 -96 -15 -4 -30 -11 -33 -16 -3 -5
-17 -9 -32 -10 -24 0 -25 -1 -7 -9 11 -5 15 -9 10 -9 -11 -1 -45 -72 -45 -94
0 -19 -39 -77 -56 -84 -9 -3 -39 -28 -66 -54 -28 -27 -58 -49 -66 -49 -7 0
-26 -8 -40 -18 -70 -46 -141 -64 -237 -59 -80 5 -190 30 -200 47 -3 5 -29 21
-58 35 -50 26 -167 130 -167 150 -1 6 -14 26 -30 45 -17 19 -30 44 -30 56 0
12 -5 24 -12 26 -6 2 -12 13 -13 24 -1 26 -23 55 -58 77 -68 44 -167 167 -167
208 0 29 12 23 44 -22 158 -223 787 -326 1273 -208 254 62 403 160 435 288 9
35 13 41 18 25 4 -10 3 -32 -1 -49z m344 -20 c35 -22 47 -57 47 -134 0 -148
-117 -338 -250 -406 -42 -21 -194 -75 -213 -75 -4 0 -4 8 1 18 18 33 60 167
72 227 8 39 21 68 36 82 21 20 23 28 18 80 -9 81 9 140 57 185 21 20 49 39 61
41 41 9 147 -2 171 -18z m-102 -579 c-33 -35 -114 -76 -212 -106 -75 -24 -91
-26 -106 -15 -15 11 -16 14 -3 18 8 2 51 14 95 26 44 12 116 42 160 66 44 23
82 41 84 39 3 -2 -6 -15 -18 -28z"/>
</g>
</svg>
